<svg width="26" height="26" viewBox="0 0 26 26" fill="none" xmlns="http://www.w3.org/2000/svg">
<path d="M9.92363 18.6094L10.4684 19.2222L11.0303 18.6251L19.5923 9.52805C20.1601 8.92479 20.1313 7.97547 19.528 7.4077C18.9248 6.83993 17.9755 6.86869 17.4077 7.47195L10.5316 14.7778L7.62111 11.5035C7.07073 10.8843 6.12263 10.8285 5.50345 11.3789C4.88428 11.9293 4.82851 12.8774 5.37889 13.4965L9.92363 18.6094ZM25.25 13C25.25 19.7655 19.7655 25.25 13 25.25C6.23451 25.25 0.75 19.7655 0.75 13C0.75 6.23451 6.23451 0.75 13 0.75C19.7655 0.75 25.25 6.23451 25.25 13Z" fill="#4396F6" stroke="#4396F6" stroke-width="1.5"/>
</svg>
