<svg width="12" height="9" viewBox="0 0 12 9" fill="none" xmlns="http://www.w3.org/2000/svg"><path fill-rule="evenodd" clip-rule="evenodd" d="M11.7799 0.220316C11.9203 0.360936 11.9992 0.551567 11.9992 0.750317C11.9992 0.949067 11.9203 1.13969 11.7799 1.28032L4.52985 8.53032C4.38922 8.67072 4.1986 8.74962 3.99985 8.74962C3.8011 8.74962 3.61047 8.67072 3.46985 8.53032L0.219851 5.28032C0.087371 5.13814 0.015251 4.9501 0.018671 4.75579C0.022101 4.56149 0.100811 4.37611 0.238231 4.23869C0.375641 4.10128 0.561031 4.02257 0.755331 4.01914C0.949631 4.01571 1.13767 4.08784 1.27985 4.22032L3.99985 6.94032L10.7199 0.220316C10.8605 0.0798664 11.0511 0.000976562 11.2499 0.000976562C11.4486 0.000976562 11.6393 0.0798664 11.7799 0.220316Z" fill="white"></path></svg>