<svg width="32" height="32" viewBox="0 0 32 32" fill="none" xmlns="http://www.w3.org/2000/svg">
<path fill-rule="evenodd" clip-rule="evenodd" d="M13.5 3C7.13365 3 2 8.24003 2 14.67C2 21.0999 7.13365 26.3399 13.5 26.3399C16.9327 26.3399 20.007 24.8165 22.1114 22.4046L28.2986 28.6919C28.686 29.0856 29.314 29.0856 29.7014 28.6919C30.0888 28.2983 30.0888 27.6601 29.7014 27.2664L23.3065 20.768C24.3811 18.9918 25 16.9026 25 14.67C25 8.24003 19.8664 3 13.5 3ZM4 14.67C4 9.3142 8.26837 5 13.5 5C18.7316 5 23 9.3142 23 14.67C23 20.0258 18.7316 24.3399 13.5 24.3399C8.26837 24.3399 4 20.0258 4 14.67Z" fill="black"/>
</svg>
