<svg xmlns:xlink="http://www.w3.org/1999/xlink" width="20" height="20" xmlns="http://www.w3.org/2000/svg" viewBox="0 0 20 20"><path fill="#212529" d="M18.258 1.25l-5.578.006c-.13 0-.256.052-.348.144-.093.092-.145.217-.145.348v1.139c0 .065.014.13.039.19s.062.115.11.161c.046.046.101.082.162.106.061.024.126.036.192.035l2.516-.093.07.07-9.53 9.532c-.039.038-.07.083-.09.133-.02.05-.031.103-.031.157 0 .054.01.108.031.158.02.05.051.095.09.133l.785.786c.039.038.084.069.134.09.05.02.103.03.157.03.054 0 .107-.01.157-.03.05-.021.095-.052.133-.09l9.532-9.532.07.07-.093 2.517c-.001.066.01.13.035.192.024.06.06.116.106.163s.1.084.16.11c.061.024.126.038.191.037h1.139c.13 0 .256-.051.348-.144.092-.092.144-.217.144-.348l.006-5.578c0-.13-.052-.256-.144-.348-.093-.092-.218-.144-.348-.144zm-2.242 9.844h-.547c-.145 0-.284.057-.387.16-.103.103-.16.242-.16.387v5.263c0 .055-.022.107-.06.145-.039.039-.09.06-.145.06H3.096c-.055 0-.107-.021-.145-.06-.039-.038-.06-.09-.06-.145V5.284c0-.055.021-.107.06-.146.038-.038.09-.06.145-.06h5.263c.145 0 .285-.057.387-.16.103-.103.16-.242.16-.387v-.547c0-.145-.057-.284-.16-.386-.102-.103-.242-.16-.387-.16H2.891c-.436 0-.853.172-1.16.48-.308.308-.481.725-.481 1.16V17.11c0 .435.173.853.48 1.16.308.308.725.481 1.16.481h12.032c.435 0 .852-.173 1.16-.48.308-.308.48-.726.48-1.16v-5.47c0-.144-.057-.284-.16-.386-.102-.103-.241-.16-.386-.16z"></path></svg>