<svg xmlns:xlink="http://www.w3.org/1999/xlink" xmlns="http://www.w3.org/2000/svg" width="15" height="18" fill="none" viewBox="0 0 15 18"><path fill="#000" fill-rule="evenodd" d="M12.541 9.512c-.008-1.475.654-2.588 1.993-3.408-.75-1.08-1.881-1.676-3.376-1.792-1.414-.113-2.96.832-3.526.832-.598 0-1.97-.792-3.045-.792C2.363 4.388 0 6.14 0 9.705c0 1.053.191 2.14.574 3.263.51 1.475 2.351 5.091 4.272 5.031 1.004-.024 1.714-.72 3.02-.72 1.268 0 1.925.72 3.045.72 1.937-.028 3.603-3.315 4.089-4.794-2.598-1.234-2.459-3.617-2.459-3.693zm-2.255-6.599c1.088-1.302.988-2.487.956-2.913-.96.056-2.072.659-2.706 1.402-.697.796-1.108 1.78-1.02 2.89 1.04.08 1.989-.458 2.77-1.379z" clip-rule="evenodd"></path></svg>